<mxfile host="app.diagrams.net" agent="Mozilla/5.0 (Windows NT 10.0; Win64; x64) AppleWebKit/537.36 (KHTML, like Gecko) Chrome/128.0.0.0 Safari/537.36 Edg/128.0.0.0" version="24.7.7">
  <diagram name="Page-1" id="80d4a630-b321-0f5e-ff81-c5a36ef4752d">
    <mxGraphModel dx="618" dy="359" grid="1" gridSize="10" guides="1" tooltips="1" connect="1" arrows="1" fold="1" page="1" pageScale="1" pageWidth="1100" pageHeight="850" background="none" math="0" shadow="0">
      <root>
        <mxCell id="0" />
        <mxCell id="1" parent="0" />
        <mxCell id="EDV2cXGMWbGzMxfuJ28y-3" value="ME2-D7-JAP" style="fontColor=#0066CC;verticalAlign=top;verticalLabelPosition=bottom;labelPosition=center;align=center;html=1;outlineConnect=0;fillColor=#CCCCCC;strokeColor=#6881B3;gradientColor=none;gradientDirection=north;strokeWidth=2;shape=mxgraph.networks.router;" vertex="1" parent="1">
          <mxGeometry x="340" y="420" width="100" height="30" as="geometry" />
        </mxCell>
        <mxCell id="EDV2cXGMWbGzMxfuJ28y-4" value="ME9-D7-JAP" style="fontColor=#0066CC;verticalAlign=top;verticalLabelPosition=bottom;labelPosition=center;align=center;html=1;outlineConnect=0;fillColor=#CCCCCC;strokeColor=#6881B3;gradientColor=none;gradientDirection=north;strokeWidth=2;shape=mxgraph.networks.router;" vertex="1" parent="1">
          <mxGeometry x="340" y="290" width="100" height="30" as="geometry" />
        </mxCell>
        <mxCell id="EDV2cXGMWbGzMxfuJ28y-5" value="ME-D7-JAP" style="fontColor=#0066CC;verticalAlign=top;verticalLabelPosition=bottom;labelPosition=center;align=center;html=1;outlineConnect=0;fillColor=#CCCCCC;strokeColor=#6881B3;gradientColor=none;gradientDirection=north;strokeWidth=2;shape=mxgraph.networks.router;" vertex="1" parent="1">
          <mxGeometry x="580" y="290" width="100" height="30" as="geometry" />
        </mxCell>
        <mxCell id="EDV2cXGMWbGzMxfuJ28y-7" style="edgeStyle=orthogonalEdgeStyle;rounded=0;orthogonalLoop=1;jettySize=auto;html=1;exitX=0;exitY=0.5;exitDx=0;exitDy=0;exitPerimeter=0;entryX=0.05;entryY=0.05;entryDx=0;entryDy=0;entryPerimeter=0;" edge="1" parent="1" source="EDV2cXGMWbGzMxfuJ28y-4" target="EDV2cXGMWbGzMxfuJ28y-3">
          <mxGeometry relative="1" as="geometry">
            <Array as="points">
              <mxPoint x="320" y="305" />
              <mxPoint x="320" y="422" />
            </Array>
          </mxGeometry>
        </mxCell>
        <mxCell id="EDV2cXGMWbGzMxfuJ28y-8" style="edgeStyle=orthogonalEdgeStyle;rounded=0;orthogonalLoop=1;jettySize=auto;html=1;exitX=0.05;exitY=0.05;exitDx=0;exitDy=0;exitPerimeter=0;entryX=0;entryY=0.5;entryDx=0;entryDy=0;entryPerimeter=0;" edge="1" parent="1" source="EDV2cXGMWbGzMxfuJ28y-4" target="EDV2cXGMWbGzMxfuJ28y-3">
          <mxGeometry relative="1" as="geometry">
            <Array as="points">
              <mxPoint x="310" y="292" />
              <mxPoint x="310" y="435" />
            </Array>
          </mxGeometry>
        </mxCell>
        <mxCell id="EDV2cXGMWbGzMxfuJ28y-9" style="edgeStyle=orthogonalEdgeStyle;rounded=0;orthogonalLoop=1;jettySize=auto;html=1;exitX=0.95;exitY=0.05;exitDx=0;exitDy=0;exitPerimeter=0;entryX=0.05;entryY=0.05;entryDx=0;entryDy=0;entryPerimeter=0;" edge="1" parent="1" source="EDV2cXGMWbGzMxfuJ28y-4" target="EDV2cXGMWbGzMxfuJ28y-5">
          <mxGeometry relative="1" as="geometry" />
        </mxCell>
        <mxCell id="EDV2cXGMWbGzMxfuJ28y-10" style="edgeStyle=orthogonalEdgeStyle;rounded=0;orthogonalLoop=1;jettySize=auto;html=1;exitX=1;exitY=0.5;exitDx=0;exitDy=0;exitPerimeter=0;entryX=0;entryY=0.5;entryDx=0;entryDy=0;entryPerimeter=0;" edge="1" parent="1">
          <mxGeometry relative="1" as="geometry">
            <mxPoint x="440" y="301" as="sourcePoint" />
            <mxPoint x="580" y="301" as="targetPoint" />
          </mxGeometry>
        </mxCell>
        <mxCell id="EDV2cXGMWbGzMxfuJ28y-11" value="" style="endArrow=classic;html=1;rounded=0;entryX=0.1;entryY=1;entryDx=0;entryDy=0;entryPerimeter=0;exitX=0.9;exitY=1;exitDx=0;exitDy=0;exitPerimeter=0;" edge="1" parent="1" source="EDV2cXGMWbGzMxfuJ28y-4" target="EDV2cXGMWbGzMxfuJ28y-5">
          <mxGeometry width="50" height="50" relative="1" as="geometry">
            <mxPoint x="520" y="420" as="sourcePoint" />
            <mxPoint x="570" y="370" as="targetPoint" />
          </mxGeometry>
        </mxCell>
        <mxCell id="EDV2cXGMWbGzMxfuJ28y-12" value="" style="endArrow=classic;html=1;rounded=0;" edge="1" parent="1">
          <mxGeometry width="50" height="50" relative="1" as="geometry">
            <mxPoint x="440" y="311" as="sourcePoint" />
            <mxPoint x="580" y="311" as="targetPoint" />
          </mxGeometry>
        </mxCell>
        <mxCell id="EDV2cXGMWbGzMxfuJ28y-13" style="edgeStyle=orthogonalEdgeStyle;rounded=0;orthogonalLoop=1;jettySize=auto;html=1;exitX=0.9;exitY=1;exitDx=0;exitDy=0;exitPerimeter=0;entryX=0.95;entryY=0.05;entryDx=0;entryDy=0;entryPerimeter=0;strokeColor=#FF3333;" edge="1" parent="1" source="EDV2cXGMWbGzMxfuJ28y-5" target="EDV2cXGMWbGzMxfuJ28y-3">
          <mxGeometry relative="1" as="geometry">
            <Array as="points">
              <mxPoint x="670" y="422" />
            </Array>
          </mxGeometry>
        </mxCell>
        <mxCell id="EDV2cXGMWbGzMxfuJ28y-15" value="NEW LINK" style="edgeLabel;html=1;align=center;verticalAlign=middle;resizable=0;points=[];" vertex="1" connectable="0" parent="EDV2cXGMWbGzMxfuJ28y-13">
          <mxGeometry x="0.2152" relative="1" as="geometry">
            <mxPoint as="offset" />
          </mxGeometry>
        </mxCell>
        <mxCell id="EDV2cXGMWbGzMxfuJ28y-14" style="edgeStyle=orthogonalEdgeStyle;rounded=0;orthogonalLoop=1;jettySize=auto;html=1;exitX=1;exitY=0.5;exitDx=0;exitDy=0;exitPerimeter=0;entryX=1;entryY=0.5;entryDx=0;entryDy=0;entryPerimeter=0;fillColor=#f8cecc;strokeColor=#FF3333;" edge="1" parent="1" source="EDV2cXGMWbGzMxfuJ28y-5" target="EDV2cXGMWbGzMxfuJ28y-3">
          <mxGeometry relative="1" as="geometry" />
        </mxCell>
        <mxCell id="EDV2cXGMWbGzMxfuJ28y-16" value="NEW LINK" style="edgeLabel;html=1;align=center;verticalAlign=middle;resizable=0;points=[];" vertex="1" connectable="0" parent="EDV2cXGMWbGzMxfuJ28y-14">
          <mxGeometry x="0.34" relative="1" as="geometry">
            <mxPoint as="offset" />
          </mxGeometry>
        </mxCell>
      </root>
    </mxGraphModel>
  </diagram>
</mxfile>
